<?xml version="1.0" standalone="no"?>
<!DOCTYPE svg PUBLIC "-//W3C//DTD SVG 20010904//EN"
 "http://www.w3.org/TR/2001/REC-SVG-20010904/DTD/svg10.dtd">
<svg version="1.0" xmlns="http://www.w3.org/2000/svg"
 width="5262.000000pt" height="3543.000000pt" viewBox="0 0 5262.000000 3543.000000"
 preserveAspectRatio="xMidYMid meet">

<g transform="translate(0.000000,3543.000000) scale(0.100000,-0.100000)"
fill="#000000" stroke="none">
<path d="M26485 23853 c-419 -36 -856 -204 -1295 -496 -257 -171 -442 -327
-716 -601 -272 -273 -487 -529 -689 -821 -65 -93 -47 -75 72 76 164 205 277
334 463 523 386 394 711 641 1095 831 484 240 933 293 1335 159 587 -196 995
-781 1109 -1589 40 -287 54 -555 28 -555 -7 0 -119 13 -248 29 -276 35 -562
64 -859 88 -272 21 -977 25 -1115 5 -157 -22 -295 -53 -424 -94 -306 -98 -572
-236 -1371 -713 -299 -178 -797 -470 -998 -584 l-93 -53 -252 -9 c-768 -26
-1404 -122 -2027 -305 -627 -185 -1234 -498 -1552 -803 l-78 -74 0 -147 0
-148 98 35 c349 125 762 212 1082 228 63 3 146 8 183 11 54 4 68 3 65 -8 -2
-10 -466 -928 -472 -934 0 -1 -109 -16 -241 -34 -261 -35 -669 -97 -697 -106
-16 -5 -18 -24 -18 -215 l0 -209 1040 0 c572 0 1040 2 1040 5 0 3 -17 40 -39
83 -93 185 -135 367 -134 587 0 169 20 289 74 442 156 443 538 775 1009 878
114 25 354 31 475 12 456 -73 844 -361 1034 -768 92 -196 124 -344 124 -564 0
-230 -37 -394 -134 -587 -22 -43 -39 -80 -39 -83 0 -3 752 -5 1671 -5 1371 0
1670 -2 1666 -13 -12 -30 -189 -302 -283 -433 -513 -718 -1097 -1200 -1692
-1397 -612 -203 -1124 -108 -1592 296 -197 171 -404 468 -495 710 -30 79 -27
47 5 -74 138 -512 320 -863 600 -1153 157 -163 285 -258 465 -348 350 -175
769 -200 1211 -73 736 213 1533 905 2211 1920 1165 1746 1680 4084 1234 5606
-130 442 -299 746 -561 1010 -272 272 -578 419 -960 459 -91 9 -229 11 -315 3z
m330 -2798 c352 -28 1038 -108 1064 -125 25 -15 -57 -611 -125 -917 l-17 -76
-1341 8 c-737 4 -1342 8 -1344 9 -1 2 7 23 18 49 45 102 36 181 -30 241 -120
109 -356 10 -569 -239 l-71 -82 -137 -7 c-162 -8 -437 -31 -612 -51 -69 -8
-127 -13 -129 -11 -8 9 421 297 728 488 521 326 1009 574 1303 662 210 63 346
76 757 71 168 -2 395 -11 505 -20z"/>
<path d="M22022 19090 c-262 -27 -474 -130 -667 -324 -155 -156 -231 -290
-286 -502 -20 -76 -23 -113 -23 -254 0 -146 4 -176 27 -265 80 -298 283 -553
553 -692 307 -159 681 -163 990 -13 169 82 309 200 418 353 258 361 260 863 7
1230 -60 87 -202 227 -286 284 -212 142 -476 208 -733 183z"/>
<path d="M16748 12109 c-180 -21 -361 -87 -511 -186 -95 -63 -253 -217 -316
-307 -98 -142 -157 -288 -187 -457 -25 -144 -15 -410 19 -542 96 -365 382
-667 744 -785 140 -46 219 -57 418 -56 172 1 199 3 287 27 191 51 345 135 508
279 140 122 144 96 -42 287 l-159 165 -72 -71 c-148 -145 -290 -208 -497 -219
-205 -11 -365 49 -506 190 -138 138 -195 288 -195 511 -1 229 71 392 232 530
64 55 189 118 279 142 88 23 273 23 360 -1 136 -35 269 -115 369 -220 29 -32
54 -56 55 -54 1 2 71 81 155 175 l152 173 -28 34 c-43 55 -165 155 -265 218
-222 141 -506 200 -800 167z"/>
<path d="M23605 12109 c-339 -45 -578 -229 -640 -490 -36 -155 -12 -392 52
-512 89 -166 303 -284 691 -382 144 -36 281 -87 335 -123 138 -95 105 -301
-57 -361 -199 -73 -458 1 -734 211 -86 66 -107 77 -117 66 -26 -28 -285 -348
-285 -352 0 -10 149 -126 225 -175 210 -138 430 -207 685 -218 223 -9 415 30
560 114 87 51 197 157 243 234 63 106 82 183 82 334 0 147 -12 207 -61 311
-64 135 -212 252 -422 331 -35 13 -148 46 -251 74 -295 80 -387 123 -427 201
-17 34 -20 120 -5 159 17 46 69 95 123 120 71 31 213 31 343 0 96 -23 257 -95
344 -155 29 -20 57 -36 61 -36 10 0 250 344 250 359 0 16 -134 107 -223 152
-219 111 -544 169 -772 138z"/>
<path d="M33749 12109 c-511 -54 -930 -443 -1020 -949 -8 -41 -14 -142 -14
-225 0 -218 34 -374 115 -535 157 -310 445 -528 800 -605 114 -24 354 -30 470
-11 246 40 474 161 659 350 l64 65 -61 68 c-33 37 -105 112 -159 165 l-98 98
-76 -73 c-163 -155 -350 -226 -574 -214 -173 8 -305 68 -432 194 -79 80 -139
186 -170 303 -24 91 -24 310 0 400 69 255 274 438 543 485 109 19 149 19 259
0 158 -28 292 -100 410 -222 l62 -63 156 177 156 178 -57 58 c-266 272 -634
399 -1033 356z"/>
<path d="M18414 10933 l-491 -1138 265 -3 c206 -2 267 1 273 10 5 7 54 120
110 251 l103 237 472 0 c367 0 475 -3 481 -12 4 -7 54 -119 110 -248 l101
-235 270 -3 270 -2 -129 297 c-70 164 -292 676 -491 1138 l-363 840 -245 3
-245 2 -491 -1137z m879 128 c75 -176 137 -322 137 -325 0 -3 -126 -6 -280 -6
-154 0 -280 3 -280 8 0 13 274 642 281 642 3 0 67 -144 142 -319z"/>
<path d="M20640 10931 l0 -1141 255 0 255 0 0 365 0 365 178 0 177 -1 245
-355 c135 -195 250 -360 256 -365 7 -5 134 -8 316 -7 l305 3 -283 400 c-156
220 -284 403 -284 406 0 3 35 23 77 44 153 75 269 223 320 405 26 93 26 425 0
520 -61 226 -202 365 -439 434 -181 52 -251 58 -835 63 l-543 5 0 -1141z
m1153 671 c83 -30 112 -55 144 -120 26 -53 28 -66 28 -177 0 -131 -13 -176
-70 -243 -70 -83 -161 -102 -492 -102 l-253 0 0 336 0 336 293 -4 c269 -4 297
-6 350 -26z"/>
<path d="M25090 10930 l0 -1140 835 0 835 0 0 225 0 225 -585 0 -585 0 2 238
3 237 508 3 507 2 0 210 0 210 -507 2 -508 3 -3 238 -2 237 565 0 565 0 0 225
0 225 -815 0 -815 0 0 -1140z"/>
<path d="M27220 10930 l0 -1140 250 0 250 0 0 365 0 365 178 0 177 0 253 -365
253 -365 310 0 c255 0 309 2 302 13 -4 8 -133 190 -286 406 -153 216 -277 394
-275 395 2 2 37 20 78 42 96 49 215 164 257 249 117 232 120 592 7 817 -67
132 -193 232 -364 286 -178 57 -368 71 -962 72 l-428 0 0 -1140z m1136 677
c73 -24 127 -67 155 -124 21 -43 24 -62 24 -173 0 -109 -3 -131 -23 -175 -42
-91 -98 -132 -214 -160 -47 -11 -128 -15 -320 -15 l-258 0 0 336 0 336 293 -4
c238 -4 301 -7 343 -21z"/>
<path d="M29263 12038 c7 -18 213 -531 458 -1141 l444 -1107 214 2 214 3 453
1129 c250 621 454 1133 454 1138 0 4 -122 7 -271 6 l-271 -3 -287 -717 c-157
-394 -289 -719 -291 -722 -3 -2 -135 322 -294 720 l-290 724 -273 0 -273 0 13
-32z"/>
<path d="M31780 10930 l0 -1140 250 0 250 0 0 1140 0 1140 -250 0 -250 0 0
-1140z"/>
<path d="M35230 10930 l0 -1140 835 0 835 0 0 225 0 225 -585 0 -585 0 2 238
3 237 508 3 507 2 0 210 0 210 -507 2 -508 3 0 235 0 235 568 3 567 2 0 225 0
225 -820 0 -820 0 0 -1140z"/>
</g>
</svg>
